<?xml version="1.0" encoding="UTF-8"?>
<svg width="28px" height="29px" viewBox="0 0 28 29" version="1.1" xmlns="http://www.w3.org/2000/svg" xmlns:xlink="http://www.w3.org/1999/xlink">
    <!-- Generator: Sketch 48.2 (47327) - http://www.bohemiancoding.com/sketch -->
    <title>btc</title>
    <desc>Created with Sketch.</desc>
    <defs></defs>
    <g id="compra-lunes-beta" stroke="none" stroke-width="1" fill="none" fill-rule="evenodd">
        <g id="btc" transform="translate(-5.000000, 0.000000)" fill-rule="nonzero">
            <g id="Bitcoin" transform="translate(5.000000, 0.000000)">
                <g id="Group">
                    <ellipse id="Oval" fill="#F5B300" cx="13.86875" cy="14.5" rx="13.86875" ry="14.1430769"></ellipse>
                    <path d="M10.10625,7.27230769 C10.5875,7.40615385 11.06875,7.49538462 11.55,7.62923077 C12.03125,7.76307692 12.5125,7.85230769 12.99375,7.98615385 C13.125,8.03076923 13.16875,7.98615385 13.2125,7.85230769 C13.3875,7.09384615 13.5625,6.38 13.7375,5.62153846 C13.78125,5.48769231 13.825,5.44307692 13.95625,5.48769231 C14.39375,5.62153846 14.7875,5.71076923 15.225,5.8 C15.35625,5.84461538 15.35625,5.88923077 15.3125,5.97846154 C15.1375,6.69230769 14.9625,7.45076923 14.7875,8.16461538 C14.7875,8.20923077 14.7875,8.25384615 14.74375,8.34307692 C15.09375,8.43230769 15.4875,8.52153846 15.8375,8.61076923 C15.88125,8.61076923 15.925,8.52153846 15.96875,8.47692308 C16.1,7.89692308 16.23125,7.36153846 16.40625,6.78153846 C16.45,6.60307692 16.49375,6.42461538 16.5375,6.24615385 C16.5375,6.15692308 16.58125,6.11230769 16.66875,6.15692308 C17.10625,6.29076923 17.54375,6.38 18.025,6.51384615 C18.06875,6.51384615 18.06875,6.55846154 18.1125,6.55846154 C17.98125,7.13846154 17.85,7.67384615 17.71875,8.20923077 C17.675,8.43230769 17.63125,8.65538462 17.54375,8.87846154 C17.5,9.01230769 17.54375,9.05692308 17.675,9.10153846 C18.15625,9.32461538 18.6375,9.54769231 19.11875,9.77076923 C19.55625,10.0384615 19.95,10.3953846 20.25625,10.8415385 C20.65,11.5107692 20.69375,12.2246154 20.51875,12.9384615 C20.3875,13.4292308 20.2125,13.8753846 19.8625,14.2323077 C19.6,14.5 19.25,14.6784615 18.9,14.8123077 C18.85625,14.8123077 18.8125,14.8569231 18.725,14.8569231 C18.9,14.9907692 19.075,15.08 19.25,15.2138462 C19.775,15.6153846 20.125,16.1061538 20.3,16.7307692 C20.3875,17.2215385 20.34375,17.7569231 20.2125,18.2476923 C20.0375,18.8723077 19.81875,19.4076923 19.425,19.8984615 C18.94375,20.4784615 18.33125,20.7907692 17.63125,20.88 C16.7125,21.0138462 15.8375,20.9246154 14.9625,20.7907692 C14.83125,20.7461538 14.74375,20.7907692 14.7,20.9246154 C14.525,21.6384615 14.35,22.3969231 14.175,23.1107692 C14.13125,23.2892308 14.13125,23.3338462 13.9125,23.2446154 C13.51875,23.1553846 13.08125,23.0215385 12.6875,22.9323077 C12.55625,22.8876923 12.55625,22.8430769 12.6,22.7538462 C12.775,21.9953846 12.95,21.2369231 13.16875,20.5230769 C13.16875,20.4338462 13.2125,20.3892308 13.125,20.3446154 C12.775,20.2553846 12.425,20.1661538 12.03125,20.0769231 C11.94375,20.4784615 11.8125,20.88 11.725,21.2815385 C11.6375,21.6830769 11.50625,22.0846154 11.41875,22.4861538 C11.375,22.5753846 11.375,22.62 11.24375,22.5753846 C10.80625,22.4415385 10.36875,22.3523077 9.93125,22.2630769 C9.8,22.2184615 9.8,22.1738462 9.84375,22.0846154 C10.01875,21.3261538 10.19375,20.5676923 10.4125,19.8538462 C10.4125,19.8092308 10.45625,19.7646154 10.45625,19.6753846 C9.45,19.4076923 8.44375,19.14 7.39375,18.8723077 C7.48125,18.6938462 7.525,18.56 7.6125,18.3815385 C7.7875,17.98 7.9625,17.5784615 8.09375,17.2215385 C8.1375,17.0876923 8.18125,17.0876923 8.3125,17.0876923 C8.61875,17.1769231 8.96875,17.2661538 9.275,17.3107692 C9.625,17.4 9.8875,17.2215385 9.93125,16.9092308 C10.5,14.6338462 11.06875,12.3584615 11.59375,10.0384615 C11.68125,9.68153846 11.4625,9.28 11.06875,9.14615385 C10.675,9.01230769 10.28125,8.92307692 9.93125,8.83384615 C9.84375,8.83384615 9.8,8.78923077 9.84375,8.7 C9.975,8.20923077 10.10625,7.67384615 10.2375,7.18307692 C10.0625,7.31692308 10.0625,7.31692308 10.10625,7.27230769 Z M12.3375,18.2923077 C12.38125,18.2923077 12.425,18.3369231 12.425,18.3369231 C13.125,18.5153846 13.86875,18.7384615 14.6125,18.7830769 C15.1375,18.8276923 15.61875,18.8276923 16.1,18.6492308 C16.93125,18.3815385 17.28125,17.2661538 16.8,16.5523077 C16.58125,16.1953846 16.23125,15.9723077 15.88125,15.7492308 C15.09375,15.3030769 14.175,15.1246154 13.3,14.9461538 C13.16875,14.9015385 13.16875,14.9461538 13.125,15.08 C13.0375,15.5261538 12.90625,15.9276923 12.81875,16.3738462 C12.64375,16.9984615 12.5125,17.6230769 12.3375,18.2923077 Z M16.0125,13.7415385 C16.1,13.7415385 16.31875,13.6969231 16.49375,13.6523077 C17.325,13.4738462 17.7625,12.4923077 17.325,11.7338462 C17.10625,11.3323077 16.7125,11.0646154 16.31875,10.8861538 C15.70625,10.6184615 15.09375,10.4846154 14.4375,10.3061538 C14.30625,10.2615385 14.2625,10.3061538 14.21875,10.44 C14,11.3769231 13.78125,12.2692308 13.51875,13.2061538 C13.475,13.2953846 13.51875,13.34 13.60625,13.3846154 C13.78125,13.4292308 13.9125,13.4738462 14.0875,13.5184615 C14.74375,13.6076923 15.3125,13.7415385 16.0125,13.7415385 Z" id="Shape" fill="#FFFFFF"></path>
                </g>
            </g>
        </g>
    </g>
</svg>