<?xml version="1.0" encoding="UTF-8"?>
<svg width="18px" height="29px" viewBox="0 0 18 29" version="1.1" xmlns="http://www.w3.org/2000/svg" xmlns:xlink="http://www.w3.org/1999/xlink">
    <!-- Generator: Sketch 48.2 (47327) - http://www.bohemiancoding.com/sketch -->
    <title>eth</title>
    <desc>Created with Sketch.</desc>
    <defs></defs>
    <g id="compra-lunes-beta" stroke="none" stroke-width="1" fill="none" fill-rule="evenodd">
        <g id="eth" transform="translate(-16.000000, 0.000000)" fill-rule="nonzero">
            <g id="Etherium" transform="translate(16.000000, 0.000000)">
                <g id="Group">
                    <path d="M9.045,0.356923077 C9.045,0.356923077 9.045,0.356923077 9.045,0.356923077 C9.045,0.446153846 9.045,0.535384615 9.045,0.624615385 C9.045,3.92615385 9.045,7.27230769 9.045,10.5738462 C9.045,10.6184615 9.045,10.7076923 9.045,10.7523077 C9.045,10.7969231 9,10.8415385 8.955,10.8415385 C8.64,10.9753846 8.37,11.1092308 8.055,11.2430769 C7.65,11.4215385 7.2,11.6 6.795,11.8230769 C6.3,12.0461538 5.805,12.2692308 5.31,12.4923077 C4.905,12.6707692 4.5,12.8492308 4.095,13.0276923 C3.6,13.2507692 3.105,13.4738462 2.61,13.6969231 C2.205,13.8753846 1.8,14.0538462 1.35,14.2769231 C1.035,14.4107692 0.675,14.5892308 0.36,14.7230769 C0.315,14.7230769 0.315,14.7676923 0.27,14.7230769 C0.27,14.7230769 0.27,14.7230769 0.225,14.7230769 C0.36,14.5 0.495,14.3215385 0.63,14.0984615 C1.35,12.8938462 2.115,11.6892308 2.835,10.4846154 C3.6,9.19076923 4.41,7.89692308 5.175,6.60307692 C5.895,5.39846154 6.615,4.19384615 7.335,3.03384615 C7.875,2.14153846 8.415,1.29384615 8.91,0.401538462 C9,0.401538462 9,0.356923077 9.045,0.356923077 C9,0.356923077 9.045,0.356923077 9.045,0.356923077 C9.045,0.356923077 9.045,0.356923077 9.045,0.356923077 Z" id="Shape" fill="#8A92B2"></path>
                    <path d="M17.775,14.7230769 C17.775,14.7230769 17.775,14.7230769 17.775,14.7230769 C17.1,15.1692308 16.38,15.5707692 15.705,15.9723077 C13.5,17.2661538 11.34,18.5153846 9.135,19.8092308 C9.09,19.8092308 9.09,19.8538462 9.045,19.8538462 C9,19.8538462 9,19.8092308 9,19.8092308 C9,19.7646154 9,19.72 9,19.6753846 C9,16.7753846 9,13.8753846 9,10.9753846 C9,10.9307692 9,10.8861538 9,10.8415385 C9,10.7969231 9.045,10.7969231 9.09,10.7969231 C9.27,10.8861538 9.45,10.9753846 9.675,11.0646154 C10.215,11.3323077 10.8,11.5553846 11.34,11.8230769 C11.835,12.0461538 12.285,12.2692308 12.78,12.4476923 C13.275,12.6707692 13.725,12.8938462 14.22,13.1169231 C14.625,13.2953846 15.075,13.4738462 15.48,13.6969231 C15.885,13.8753846 16.335,14.0538462 16.74,14.2769231 C17.055,14.4107692 17.37,14.5892308 17.73,14.7230769 C17.73,14.6784615 17.73,14.7230769 17.775,14.7230769 Z" id="Shape" fill="#454A75"></path>
                    <path d="M9.045,28.5984615 C9.045,28.5984615 9.045,28.5984615 9.045,28.5984615 C9.045,28.5984615 9,28.5984615 9.045,28.5984615 C9,28.5984615 9,28.5984615 8.955,28.5538462 C8.055,27.3046154 7.2,26.1 6.3,24.8507692 C5.4,23.6015385 4.5,22.3523077 3.6,21.1030769 C2.745,19.8984615 1.845,18.6938462 0.99,17.4446154 C0.765,17.1323077 0.54,16.82 0.315,16.5076923 C0.315,16.4630769 0.27,16.4630769 0.27,16.4184615 C0.315,16.4184615 0.315,16.4630769 0.36,16.4630769 C1.575,17.1769231 2.835,17.8907692 4.05,18.6046154 C5.445,19.4523077 6.885,20.2553846 8.28,21.1030769 C8.505,21.2369231 8.775,21.3707692 9,21.5046154 C9.045,21.5046154 9.045,21.5492308 9.045,21.5938462 C9.045,21.6384615 9.045,21.6830769 9.045,21.7276923 C9.045,23.9584615 9.045,26.1446154 9.045,28.3753846 C9.045,28.42 9.045,28.5092308 9.045,28.5984615 Z" id="Shape" fill="#8A92B2"></path>
                    <path d="M0.315,14.7676923 C0.315,14.7230769 0.315,14.7230769 0.315,14.7676923 C0.765,14.5446154 1.215,14.3661538 1.665,14.1430769 C2.25,13.8753846 2.835,13.6076923 3.42,13.34 C3.87,13.1169231 4.32,12.9384615 4.77,12.7153846 C5.4,12.4030769 6.075,12.1353846 6.705,11.8230769 C7.155,11.6446154 7.605,11.4215385 8.055,11.2430769 C8.37,11.1092308 8.685,10.9753846 9,10.7969231 C9.045,10.7969231 9.045,10.7523077 9.09,10.7523077 C9.09,10.7523077 9.09,10.7523077 9.09,10.7969231 C9.09,10.8415385 9.09,10.8415385 9.09,10.8861538 C9.09,13.8307692 9.09,16.7753846 9.09,19.72 C9.09,19.7646154 9.09,19.8092308 9.09,19.8538462 C9.045,19.8984615 9.045,19.8538462 9,19.8538462 C8.865,19.7646154 8.73,19.72 8.64,19.6307692 C5.895,18.0246154 3.15,16.4184615 0.405,14.8123077 C0.36,14.7676923 0.315,14.7676923 0.315,14.7676923 Z" id="Shape" fill="#62688F"></path>
                    <path d="M17.73,16.4184615 C17.73,16.4184615 17.73,16.4184615 17.73,16.4184615 C17.73,16.4630769 17.73,16.4630769 17.685,16.5076923 C15.075,20.1661538 12.465,23.78 9.855,27.4384615 C9.585,27.84 9.315,28.1969231 9.045,28.5984615 C9.045,28.5984615 9.045,28.5984615 9.045,28.5538462 C9.045,28.5092308 9.045,28.5092308 9.045,28.4646154 C9.045,26.1892308 9.045,23.9138462 9.045,21.6384615 C9.045,21.5938462 9.045,21.5492308 9.045,21.5046154 C9.63,21.1476923 10.215,20.7907692 10.8,20.4784615 C13.095,19.14 15.39,17.8015385 17.685,16.4630769 C17.685,16.4184615 17.73,16.4184615 17.73,16.4184615 Z" id="Shape" fill="#62688F"></path>
                    <path d="M9.045,10.7969231 C9.045,10.7969231 9.045,10.7969231 9.045,10.7969231 C9.045,10.7523077 9.045,10.7076923 9.045,10.7076923 C9.045,7.31692308 9.045,3.88153846 9.045,0.490769231 C9.045,0.446153846 9.045,0.401538462 9.045,0.401538462 C11.925,5.13076923 14.805,9.86 17.685,14.5892308 C17.73,14.6338462 17.775,14.6784615 17.775,14.7230769 C17.595,14.6338462 17.415,14.5446154 17.19,14.4553846 C16.965,14.3661538 16.74,14.2323077 16.515,14.1430769 C16.38,14.0984615 16.245,14.0092308 16.065,13.9646154 C15.84,13.8753846 15.57,13.7415385 15.345,13.6523077 C15.21,13.6076923 15.075,13.5184615 14.94,13.4738462 C14.625,13.34 14.31,13.2061538 13.995,13.0723077 C13.815,12.9830769 13.68,12.9384615 13.5,12.8492308 C13.275,12.76 13.05,12.6261538 12.825,12.5369231 C12.69,12.4923077 12.555,12.4030769 12.42,12.3584615 C12.105,12.2246154 11.79,12.0907692 11.475,11.9569231 C11.295,11.8676923 11.16,11.8230769 10.98,11.7338462 C10.755,11.6446154 10.53,11.5107692 10.305,11.4215385 C10.17,11.3323077 9.99,11.2876923 9.855,11.1984615 C9.585,11.0646154 9.315,10.9307692 9.045,10.7969231 C9.045,10.7969231 9.045,10.7969231 9.045,10.7969231 Z" id="Shape" fill="#62688F"></path>
                </g>
            </g>
        </g>
    </g>
</svg>