<?xml version="1.0" encoding="UTF-8"?>
<svg width="20px" height="20px" viewBox="0 0 20 20" version="1.1" xmlns="http://www.w3.org/2000/svg" xmlns:xlink="http://www.w3.org/1999/xlink">
    <!-- Generator: sketchtool 48.2 (47327) - http://www.bohemiancoding.com/sketch -->
    <title>969AD62A-B0DD-4037-9EF3-CC22CD52134B</title>
    <desc>Created with sketchtool.</desc>
    <defs></defs>
    <g id="Wallet-Lunes" stroke="none" stroke-width="1" fill="none" fill-rule="evenodd" transform="translate(-1043.000000, -49.000000)">
        <g id="Facebook" transform="translate(1043.000000, 49.000000)">
            <path d="M0,10 C0,4.47715223 4.47715223,0 10,0 C15.5228478,0 20,4.47715223 20,10 C20,15.5228478 15.5228478,20 10,20 C4.47715223,20 0,15.5228478 0,10 Z" id="back" fill="#FFFFFF"></path>
            <path d="M10.7089813,15.5464486 L10.7089813,10.1059207 L12.2108049,10.1059207 L12.409829,8.23108461 L10.7089813,8.23108461 L10.7115329,7.29271111 C10.7115329,6.80372499 10.7579931,6.54171506 11.4603184,6.54171506 L12.3991974,6.54171506 L12.3991974,4.66666667 L10.8971611,4.66666667 C9.09297395,4.66666667 8.45794686,5.57616387 8.45794686,7.10565216 L8.45794686,8.23129693 L7.33333333,8.23129693 L7.33333333,10.106133 L8.45794686,10.106133 L8.45794686,15.5464486 L10.7089813,15.5464486 Z" id="Shape" fill="#3B5998"></path>
        </g>
    </g>
</svg>