<?xml version="1.0" encoding="UTF-8"?>
<svg width="28px" height="29px" viewBox="0 0 28 29" version="1.1" xmlns="http://www.w3.org/2000/svg" xmlns:xlink="http://www.w3.org/1999/xlink">
    <!-- Generator: Sketch 48.2 (47327) - http://www.bohemiancoding.com/sketch -->
    <title>ltc</title>
    <desc>Created with Sketch.</desc>
    <defs></defs>
    <g id="compra-lunes-beta" stroke="none" stroke-width="1" fill="none" fill-rule="evenodd">
        <g id="ltc" transform="translate(-8.000000, 0.000000)" fill-rule="nonzero">
            <g id="Litecoin" transform="translate(8.000000, 0.000000)">
                <g id="Group">
                    <path d="M14.0875,28.5984615 C6.3875,28.5538462 0.21875,22.2630769 0.2625,14.4553846 C0.2625,6.60307692 6.51875,0.312307692 14.175,0.356923077 C21.875,0.401538462 28.04375,6.73692308 28,14.5446154 C27.9125,22.3523077 21.7,28.6430769 14.0875,28.5984615 Z M26.64375,14.5 C26.64375,7.40615385 21.04375,1.69538462 14.0875,1.69538462 C7.175,1.69538462 1.575,7.40615385 1.575,14.4553846 C1.575,21.5492308 7.175,27.26 14.13125,27.26 C21.04375,27.26 26.64375,21.5492308 26.64375,14.5 Z" id="Shape" fill="#C0C0C0"></path>
                    <path d="M24.7625,14.5 C24.675,20.5230769 19.90625,25.3861538 14.04375,25.3415385 C8.09375,25.2523077 3.36875,20.3446154 3.45625,14.3661538 C3.54375,8.34307692 8.3125,3.56923077 14.13125,3.61384615 C20.0375,3.65846154 24.7625,8.52153846 24.7625,14.5 Z M13.43125,18.3815385 C13.43125,18.3369231 13.43125,18.2923077 13.43125,18.2476923 C13.7375,17.0430769 14,15.8830769 14.30625,14.6784615 C14.35,14.5892308 14.4375,14.4553846 14.56875,14.4107692 C14.875,14.2769231 15.18125,14.1430769 15.4875,14.0538462 C16.1875,13.8753846 16.58125,13.4738462 16.66875,12.76 C16.7125,12.4476923 16.84375,12.1353846 16.93125,11.7784615 C16.1875,12.0907692 15.53125,12.3584615 14.83125,12.6261538 C15.3125,10.7076923 15.75,8.92307692 16.23125,7.04923077 C16.1,7.04923077 16.0125,7.04923077 15.925,7.04923077 C14.7,7.04923077 13.475,7.04923077 12.25,7.04923077 C11.9875,7.04923077 11.9,7.13846154 11.8125,7.40615385 C11.2,9.72615385 10.5875,12.0461538 9.975,14.3661538 C9.93125,14.5 9.8,14.6338462 9.7125,14.6784615 C9.31875,14.8569231 8.88125,14.9907692 8.4875,15.1692308 C8.4,15.2138462 8.26875,15.2584615 8.26875,15.3030769 C8.09375,15.8830769 7.91875,16.5076923 7.7,17.1769231 C8.3125,16.9092308 8.8375,16.6861538 9.45,16.4630769 C9.05625,18.0246154 8.6625,19.5415385 8.26875,21.0584615 C9.14375,21.0584615 9.975,21.0584615 10.80625,21.0584615 C13.7375,21.0584615 16.625,21.0584615 19.55625,21.0584615 C19.775,21.0584615 19.8625,21.0138462 19.90625,20.7907692 C19.99375,20.3446154 20.125,19.8984615 20.25625,19.4969231 C20.34375,19.1846154 20.3875,18.8723077 20.475,18.5153846 C18.1125,18.4707692 15.79375,18.4261538 13.43125,18.3815385 Z" id="Shape" fill="#C0C0C0"></path>
                    <path d="M13.43125,18.3815385 C15.79375,18.4261538 18.1125,18.4707692 20.475,18.56 C20.3875,18.9169231 20.3,19.2292308 20.25625,19.5415385 C20.125,19.9876923 19.99375,20.3892308 19.90625,20.8353846 C19.8625,21.0584615 19.775,21.1030769 19.55625,21.1030769 C16.625,21.1030769 13.7375,21.1030769 10.80625,21.1030769 C9.975,21.1030769 9.14375,21.1030769 8.26875,21.1030769 C8.6625,19.5415385 9.05625,18.0692308 9.45,16.5076923 C8.8375,16.7307692 8.3125,16.9538462 7.7,17.2215385 C7.875,16.5523077 8.05,15.9723077 8.26875,15.3476923 C8.26875,15.2584615 8.4,15.2138462 8.4875,15.2138462 C8.88125,15.0353846 9.31875,14.9015385 9.7125,14.7230769 C9.84375,14.6784615 9.975,14.5446154 9.975,14.4107692 C10.5875,12.0907692 11.2,9.77076923 11.8125,7.45076923 C11.85625,7.18307692 11.94375,7.09384615 12.25,7.09384615 C13.475,7.09384615 14.7,7.09384615 15.925,7.09384615 C16.0125,7.09384615 16.1,7.09384615 16.23125,7.09384615 C15.75,8.92307692 15.3125,10.7523077 14.83125,12.6707692 C15.53125,12.3584615 16.1875,12.0907692 16.93125,11.8230769 C16.84375,12.18 16.7125,12.4923077 16.66875,12.8046154 C16.58125,13.5184615 16.1875,13.92 15.4875,14.0984615 C15.18125,14.1876923 14.875,14.3215385 14.56875,14.4553846 C14.48125,14.5 14.35,14.6338462 14.30625,14.7230769 C14,15.9276923 13.69375,17.0876923 13.43125,18.2923077 C13.43125,18.2923077 13.43125,18.3369231 13.43125,18.3815385 Z" id="Shape" fill="#FFFFFF"></path>
                </g>
            </g>
        </g>
    </g>
</svg>