<?xml version="1.0" encoding="UTF-8"?>
<svg width="20px" height="20px" viewBox="0 0 20 20" version="1.1" xmlns="http://www.w3.org/2000/svg" xmlns:xlink="http://www.w3.org/1999/xlink">
    <!-- Generator: sketchtool 48.2 (47327) - http://www.bohemiancoding.com/sketch -->
    <title>B429C6A7-40A8-4D69-AFDC-570886A0811C</title>
    <desc>Created with sketchtool.</desc>
    <defs></defs>
    <g id="Wallet-Lunes" stroke="none" stroke-width="1" fill="none" fill-rule="evenodd" transform="translate(-1239.000000, -49.000000)">
        <g id="Medium" transform="translate(1239.000000, 49.000000)">
            <path d="M0,10 C0,4.47715223 4.47715223,0 10,0 C15.5228478,0 20,4.47715223 20,10 C20,15.5228478 15.5228478,20 10,20 C4.47715223,20 0,15.5228478 0,10 Z" id="back" fill="#FFFFFF"></path>
            <g id="Group" transform="translate(5.000000, 5.666667)">
                <path d="M6.75896018,0.00987089273 C6.70818671,-0.0156988481 6.66666667,0.0101480715 6.66666667,0.0673161913 L6.66666667,7.09781692 L9.72311947,8.63705988 C9.87540548,8.7137691 10,8.6361937 10,8.46468934 L10,1.69709267 C10,1.6633808 9.98108035,1.63254466 9.95115289,1.61747307 L6.75896018,0.00987089273" id="Fill-6" fill="#32FC8D"></path>
                <path d="M3.33333333,5.34479255 L6.62830973,0.0526791677 C6.65820781,0.00468085056 6.72439837,-0.0139718762 6.77541522,0.0112400512 L9.95823059,1.58415003 C9.99787579,1.60372514 10.0120126,1.65271417 9.98878539,1.69001963 L6.68264474,7 L3.33333333,5.34479255" id="Fill-7" fill="#0BE370"></path>
                <path d="M0.216371222,0.0456128892 C0.00838469263,-0.0567176836 -0.0620833845,0.0190159562 0.0597911549,0.213932984 L3.25245309,5.31988527 L6.66666667,7 L3.2745096,1.57495388 C3.26009888,1.55185928 3.23938127,1.53323796 3.21478791,1.52110115 L0.216371222,0.0456128892" id="Fill-9" fill="#14C767"></path>
                <path d="M3.33333333,8.46383282 C3.33333333,8.63606447 3.2087057,8.71396885 3.05642126,8.63693433 L0.184619512,7.18451701 C0.0830736208,7.13316066 0,6.99721944 0,6.88239834 L0,0.13523219 C0,0.0204110908 0.0830736208,-0.0315367581 0.184619512,0.0198195882 L3.29222651,1.59151167 C3.31740659,1.60424638 3.33333333,1.63027249 3.33333333,1.658769 L3.33333333,8.46383282" id="Fill-10" fill="#00AB6C"></path>
            </g>
        </g>
    </g>
</svg>