<?xml version="1.0" encoding="UTF-8"?>
<svg width="20px" height="20px" viewBox="0 0 20 20" version="1.1" xmlns="http://www.w3.org/2000/svg" xmlns:xlink="http://www.w3.org/1999/xlink">
    <!-- Generator: sketchtool 48.2 (47327) - http://www.bohemiancoding.com/sketch -->
    <title>D419C465-16E0-4E5F-8A87-5C88F12E077E</title>
    <desc>Created with sketchtool.</desc>
    <defs></defs>
    <g id="Wallet-Lunes" stroke="none" stroke-width="1" fill="none" fill-rule="evenodd" transform="translate(-1174.000000, -49.000000)">
        <g id="Twitter" transform="translate(1174.000000, 49.000000)">
            <path d="M0,10 C0,4.47715223 4.47715223,0 10,0 C15.5228478,0 20,4.47715223 20,10 C20,15.5228478 15.5228478,20 10,20 C4.47715223,20 0,15.5228478 0,10 Z" id="back" fill="#FFFFFF"></path>
            <path d="M9.70050109,8.12812526 L9.72148547,8.47414782 L9.37174581,8.43177771 C8.09869343,8.26935896 6.9865213,7.71854754 6.0422242,6.79346681 L5.58056784,6.33445729 L5.46165636,6.67341817 C5.2098438,7.42901846 5.37072404,8.22698885 5.89533354,8.7636769 C6.17512527,9.06026767 6.11217213,9.10263778 5.6295314,8.92609566 C5.46165636,8.86960218 5.3147657,8.82723207 5.30077611,8.84841712 C5.25181256,8.89784892 5.4196876,9.54046224 5.55258867,9.7946829 C5.7344533,10.1477671 6.10517734,10.4937897 6.51087535,10.6985786 L6.85362022,10.8609973 L6.44792221,10.868059 C6.05621379,10.868059 6.0422242,10.8751207 6.08419296,11.0234161 C6.22408883,11.4824256 6.7766775,11.9696818 7.39221931,12.1815324 L7.82589649,12.3298278 L7.44817765,12.5558017 C6.88859419,12.8806392 6.23108362,13.064243 5.57357305,13.0783664 C5.25880735,13.0854281 5,13.1136748 5,13.1348599 C5,13.2054767 5.85336478,13.6009311 6.34999511,13.7562881 C7.83988608,14.2152977 9.60956878,14.0175705 10.9385795,13.2337234 C11.8828766,12.6758503 12.8271737,11.5671658 13.2678457,10.4937897 C13.5056686,9.92179323 13.7434916,8.87666386 13.7434916,8.37528423 C13.7434916,8.05044673 13.764476,8.00807662 14.1561844,7.61968395 C14.3870126,7.39371003 14.6038512,7.14655106 14.64582,7.07593421 C14.7157679,6.9417622 14.7087731,6.9417622 14.3520386,7.06181084 C13.7574812,7.27366139 13.6735437,7.24541465 13.967325,6.92763883 C14.1841636,6.70166491 14.4429709,6.29208719 14.4429709,6.17203854 C14.4429709,6.15085349 14.338049,6.18616191 14.2191376,6.24971708 C14.0932313,6.32033392 13.8134395,6.4262592 13.6035958,6.48981436 L13.2258769,6.60986301 L12.883132,6.3768274 C12.6942726,6.24971708 12.4284705,6.10848338 12.2885746,6.06611327 C11.9318402,5.96724968 11.3862463,5.98137305 11.0644858,6.09436001 C10.1901366,6.41213583 9.63754795,7.23129128 9.70050109,8.12812526 Z" id="Shape" fill="#55ACEE"></path>
        </g>
    </g>
</svg>